<?xml version="1.0" encoding="utf-8"?>
<!-- Generator: Adobe Illustrator 17.1.0, SVG Export Plug-In . SVG Version: 6.00 Build 0)  -->
<!DOCTYPE svg PUBLIC "-//W3C//DTD SVG 1.1//EN" "http://www.w3.org/Graphics/SVG/1.1/DTD/svg11.dtd">
<svg version="1.1" id="Layer_1" xmlns="http://www.w3.org/2000/svg" xmlns:xlink="http://www.w3.org/1999/xlink" x="0px" y="0px"
	 viewBox="0 0 66.8 33.3" enable-background="new 0 0 66.8 33.3" xml:space="preserve">
<path fill="#594C59" d="M66.7,19.2C61.4,10.1,52.3-0.1,34.7,0c-0.1,0-0.2,0-0.3,0c-0.1,0-0.2,0-0.3,0c-6,0-16.1,3-16.1,16.7
	c0,2.4,1.2,6.3,2.7,7.8C16.3,22.8,10.2,18.4,5,10.1C4.7,9.6,4,9.4,3.5,9.7l-3,2.1c-0.5,0.3-0.6,1-0.4,1.5c5.5,9.5,15,20.1,33.3,20
	c5,0,16.5-3.1,16.5-16.6c0-3-0.5-5.4-1.4-7.5c4.1,2,9.2,6.1,13.5,13.1c0.3,0.5,1,0.6,1.5,0.3l2.9-2C66.8,20.4,66.9,19.7,66.7,19.2z
	 M33.8,7c5,0,9.9,3.3,9.9,9.7c0,0.3,0,0.6,0,0.8c-0.7,5.2-5,7.8-9.3,7.8c-4.8,0-9.5-3.2-9.5-9.3c0-4.2,2.2-6.9,5.1-8.3
	C31.1,7.2,32.5,7,33.8,7z"/>
</svg>
